<svg aria-hidden="true" style="position: absolute; width: 0; height: 0; overflow: hidden;" version="1.1" xmlns="http://www.w3.org/2000/svg" xmlns:xlink="http://www.w3.org/1999/xlink">
<defs>
<symbol id="icon-search" viewBox="0 0 32 32">
<path d="M31.008 27.231l-7.58-6.447c-0.784-0.705-1.622-1.029-2.299-0.998 1.789-2.096 2.87-4.815 2.87-7.787 0-6.627-5.373-12-12-12s-12 5.373-12 12 5.373 12 12 12c2.972 0 5.691-1.081 7.787-2.87-0.031 0.677 0.293 1.515 0.998 2.299l6.447 7.58c1.104 1.226 2.907 1.33 4.007 0.23s0.997-2.903-0.23-4.007zM12 20c-4.418 0-8-3.582-8-8s3.582-8 8-8 8 3.582 8 8-3.582 8-8 8z"></path>
</symbol>

<symbol id="icon-arrow-up" viewBox="0 0 32 32">
<path d="M16 26.667c-5.88 0-10.667-4.787-10.667-10.667s4.787-10.667 10.667-10.667 10.667 4.787 10.667 10.667-4.787 10.667-10.667 10.667zM16 29.333c7.36 0 13.333-5.973 13.333-13.333s-5.973-13.333-13.333-13.333c-7.36 0-13.333 5.973-13.333 13.333s5.973 13.333 13.333 13.333v0zM14.667 16v5.333h2.667v-5.333h4l-5.333-5.333-5.333 5.333h4z"></path>
</symbol>
</defs>
</svg>
